<svg xmlns="http://www.w3.org/2000/svg" style="fill:currentColor" viewBox="0 0 24 24">
  <circle cx="195" cy="42" r="12" transform="translate(-17.445 -3.115)scale(.13715)"/>
  <path d="M2.682 6.07a1.682 1.682 0 0 1 2.377-2.377L9.48 8.114a1.682 1.682 0 0 1-2.377 2.377zM16.775 12.442a1.7 1.7 0 0 1-.288-.231l-4.422-4.422a1.682 1.682 0 0 1 2.377-2.377l3.28 3.28zM7.97 18.813a1.67 1.67 0 0 1-.867-.461L2.682 13.93a1.682 1.682 0 0 1 2.377-2.377l4.421 4.422a1.68 1.68 0 0 1-.108 2.476zM13.777 17.313l-2.792-2.793a1.682 1.682 0 0 1 2.376-2.377l2.786 2.785-.48 1.896z"/>
  <path d="m18.134 20.487-9.52 2.46a1.682 1.682 0 0 1-.84-3.255l8.554-2.21L18.5 8.89a1.681 1.681 0 0 1 3.259.824l-2.416 9.556a1.68 1.68 0 0 1-1.209 1.216"/>
</svg>
